<?xml version="1.0" encoding="utf-8"?>
<svg viewBox="0 0 500 500" xmlns="http://www.w3.org/2000/svg">
  <defs>
    <linearGradient gradientUnits="userSpaceOnUse" x1="477.784" y1="290.786" x2="477.784" y2="439.154" id="gradient-2" gradientTransform="matrix(1, 0, 0, 1.000001, 0, 0)">
      <stop offset="0" style="stop-color: rgba(104, 207, 235, 1)"/>
      <stop offset="1" style="stop-color: rgb(28, 125, 209);"/>
    </linearGradient>
    <linearGradient gradientUnits="userSpaceOnUse" x1="118.213" y1="53.299" x2="118.213" y2="230.455" id="gradient-0" gradientTransform="matrix(1, 0, 0, 1, 0, 0)">
      <stop offset="0" style="stop-color: rgba(104, 207, 235, 1)"/>
      <stop offset="1" style="stop-color: rgb(28, 125, 209);"/>
    </linearGradient>
    <linearGradient gradientUnits="userSpaceOnUse" x1="358.762" y1="55.856" x2="358.762" y2="228.637" id="gradient-1" gradientTransform="matrix(1, 0, 0, 1, 0, 0)">
      <stop offset="0" style="stop-color: rgba(255, 187, 0, 1)"/>
      <stop offset="1" style="stop-color: rgb(255, 157, 0);"/>
    </linearGradient>
    <linearGradient gradientUnits="userSpaceOnUse" x1="358.762" y1="55.856" x2="358.762" y2="228.637" id="gradient-4" gradientTransform="matrix(1.000002, 0, 0, 1.000002, 0, 0)">
      <stop offset="0" style="stop-color: rgba(255, 187, 0, 1)"/>
      <stop offset="1" style="stop-color: rgb(255, 157, 0);"/>
    </linearGradient>
  </defs>
  <rect x="356.63" y="290.786" width="242.307" height="148.368" style="stroke: rgb(0, 0, 0); stroke-opacity: 0.37; fill: url(#gradient-2);" transform="matrix(0.992842, -0.119435, -0.028237, 1.010606, -115.312874, 45.906288)" rx="12.652" ry="12.652"/>
  <rect x="26.768" y="53.299" width="182.889" height="177.156" style="stroke: rgb(0, 0, 0); stroke-opacity: 0.37; fill: url(#gradient-0);" transform="matrix(0.985941, 0.167091, 0.010279, 1.016001, -1.470786, -9.05453)" rx="12.063" ry="12.063"/>
  <rect x="270.385" y="55.856" width="176.754" height="172.781" style="paint-order: fill; stroke: rgb(0, 0, 0); stroke-opacity: 0.37; fill: url(#gradient-1);" rx="30.079" ry="30.079" transform="matrix(0.85615, 0.516727, -0.516727, 0.85615, 109.412521, -150.824097)"/>
  <rect x="270.385" y="55.856" width="176.754" height="172.781" style="paint-order: fill; stroke: rgb(0, 0, 0); stroke-opacity: 0.37; fill: url(#gradient-4);" rx="30.079" ry="30.079" transform="matrix(0.999907, 0.013602, -0.013602, 0.999907, -238.652283, 217.239288)"/>
</svg>