<?xml version="1.0" encoding="utf-8"?>
<svg viewBox="0 0 500 500" xmlns="http://www.w3.org/2000/svg" xmlns:bx="https://boxy-svg.com">
  <defs>
    <linearGradient gradientUnits="userSpaceOnUse" x1="352.57" y1="261.04" x2="352.57" y2="441.04" id="gradient-2">
      <stop offset="0" style="stop-color: rgba(238, 184, 23, 1)"/>
      <stop offset="1" style="stop-color: rgb(255, 157, 0);"/>
    </linearGradient>
    <linearGradient gradientUnits="userSpaceOnUse" x1="147.43" y1="58.185" x2="147.43" y2="238.185" id="gradient-1">
      <stop offset="0" style="stop-color: rgba(238, 184, 23, 1)"/>
      <stop offset="1" style="stop-color: rgb(255, 157, 0);"/>
    </linearGradient>
    <linearGradient gradientUnits="userSpaceOnUse" x1="149.701" y1="261.929" x2="149.701" y2="441.929" id="gradient-3">
      <stop offset="0" style="stop-color: rgba(238, 184, 23, 1)"/>
      <stop offset="1" style="stop-color: rgb(255, 157, 0);"/>
    </linearGradient>
    <linearGradient gradientUnits="userSpaceOnUse" x1="352.57" y1="58.071" x2="352.57" y2="238.071" id="gradient-0">
      <stop offset="0" style="stop-color: rgba(238, 184, 23, 1)"/>
      <stop offset="1" style="stop-color: rgb(255, 157, 0);"/>
    </linearGradient>
  </defs>
  <g>
    <title>Quad</title>
    <path style="stroke: rgb(0, 0, 0); fill: url(#gradient-2);" d="M 262.57 261.04 H 442.57 V 351.04 A 90 90 0 0 1 352.57 441.04 H 262.57 V 261.04 Z" bx:shape="rect 262.57 261.04 180 180 0 0 90 0 1@b93fa320"/>
    <path style="stroke: rgb(0, 0, 0); fill: url(#gradient-1);" d="M 147.43 58.185 H 237.43 V 238.185 H 57.43 V 148.185 A 90 90 0 0 1 147.43 58.185 Z" bx:origin="1.209033 0.5" bx:shape="rect 57.43 58.185 180 180 90 0 0 0 1@7669cbdf"/>
    <path style="stroke: rgb(0, 0, 0); fill: url(#gradient-3);" d="M 59.701 261.929 H 149.701 A 90 90 0 0 1 239.701 351.929 V 441.929 H 59.701 V 261.929 Z" bx:shape="rect 59.701 261.929 180 180 0 90 0 0 1@bd726c80"/>
    <path style="stroke: rgb(0, 0, 0); fill: url(#gradient-0);" d="M 262.57 58.071 H 442.57 V 238.071 H 352.57 A 90 90 0 0 1 262.57 148.071 V 58.071 Z" bx:shape="rect 262.57 58.071 180 180 0 0 0 90 1@9e294ed2"/>
  </g>
</svg>