<?xml version="1.0" encoding="utf-8"?>
<svg viewBox="0 0 700 150" xmlns="http://www.w3.org/2000/svg">
  <path d="M 90.88 54.701 L 80.192 59.201 C 79.359 56.493 78.244 54.014 76.848 51.764 C 75.453 49.514 73.786 47.587 71.848 45.983 C 69.911 44.378 67.713 43.128 65.255 42.233 C 62.796 41.337 60.109 40.889 57.192 40.889 C 54.067 40.889 51.203 41.41 48.598 42.451 C 45.994 43.493 43.661 44.899 41.598 46.67 C 39.536 48.441 37.734 50.514 36.192 52.889 C 34.651 55.264 33.369 57.795 32.348 60.483 C 31.327 63.17 30.557 65.951 30.036 68.826 C 29.515 71.701 54.089 74.902 54.089 77.652 C 54.089 82.027 29.765 85.993 30.786 90.326 C 31.807 94.659 33.432 98.555 35.661 102.014 C 37.89 105.472 40.776 108.274 44.317 110.42 C 47.859 112.566 52.151 113.639 57.192 113.639 C 59.942 113.639 62.088 113.024 63.63 111.795 C 65.171 110.566 65.942 108.409 65.942 105.326 L 65.942 77.701 L 90.755 77.701 L 90.755 122.389 L 83.567 122.389 L 79.192 115.326 C 75.192 118.368 70.786 120.608 65.973 122.045 C 61.161 123.482 56.255 124.201 51.255 124.201 C 46.838 124.201 42.599 123.659 38.536 122.576 C 34.473 121.493 30.692 119.951 27.192 117.951 C 23.692 115.951 20.515 113.534 17.661 110.701 C 14.807 107.868 12.369 104.722 10.348 101.264 C 8.327 97.805 6.765 94.045 5.661 89.983 C 4.557 85.92 4.005 81.681 4.005 77.264 C 4.005 72.847 4.557 68.608 5.661 64.545 C 6.765 60.482 8.327 56.712 10.348 53.233 C 12.369 49.754 14.807 46.597 17.661 43.764 C 20.515 40.931 23.692 38.514 27.192 36.514 C 30.692 34.514 34.473 32.972 38.536 31.889 C 42.599 30.806 46.838 30.264 51.255 30.264 C 55.505 30.264 59.661 30.764 63.723 31.764 C 67.786 32.764 71.567 34.274 75.067 36.295 C 78.567 38.316 81.682 40.857 84.411 43.92 C 87.14 46.983 89.297 50.576 90.88 54.701 Z" style="white-space: pre; fill: rgb(235, 235, 247);"/>
  <path d="M 167.63 56.576 L 155.755 76.264 Q 155.005 73.764 153.817 70.639 Q 152.63 67.514 150.88 64.795 Q 149.13 62.076 146.692 60.233 Q 144.255 58.389 141.067 58.389 Q 138.13 58.389 135.973 59.889 Q 133.817 61.389 132.317 63.795 Q 130.817 66.201 129.848 69.233 Q 128.88 72.264 128.348 75.358 Q 127.817 78.451 127.63 81.295 Q 127.442 84.139 127.442 86.201 L 127.442 122.389 L 106.255 122.389 L 106.255 50.201 L 114.38 50.201 L 122.942 67.014 Q 124.692 62.951 126.942 59.545 Q 129.192 56.139 132.13 53.67 Q 135.067 51.201 138.786 49.826 Q 142.505 48.451 147.192 48.451 Q 149.63 48.451 152.63 48.858 Q 155.63 49.264 158.505 50.233 Q 161.38 51.201 163.817 52.764 Q 166.255 54.326 167.63 56.576 Z" style="white-space: pre; fill: rgb(235, 235, 247);"/>
  <path d="M 198.63 32.764 Q 198.63 35.139 197.723 37.264 Q 196.817 39.389 195.255 40.951 Q 193.692 42.514 191.567 43.42 Q 189.442 44.326 187.067 44.326 Q 184.692 44.326 182.598 43.42 Q 180.505 42.514 178.942 40.951 Q 177.38 39.389 176.473 37.264 Q 175.567 35.139 175.567 32.764 Q 175.567 30.389 176.473 28.295 Q 177.38 26.201 178.942 24.639 Q 180.505 23.076 182.598 22.17 Q 184.692 21.264 187.067 21.264 Q 189.442 21.264 191.567 22.17 Q 193.692 23.076 195.255 24.639 Q 196.817 26.201 197.723 28.295 Q 198.63 30.389 198.63 32.764 Z M 197.692 122.389 L 176.505 122.389 L 176.505 50.264 L 197.692 50.264 Z" style="white-space: pre; fill: rgb(235, 235, 247);"/>
  <path d="M 288.13 122.389 L 280.005 122.389 L 270.63 106.701 Q 269.255 110.639 266.848 113.826 Q 264.442 117.014 261.286 119.295 Q 258.13 121.576 254.348 122.826 Q 250.567 124.076 246.38 124.076 Q 238.13 124.076 231.63 121.139 Q 225.13 118.201 220.63 113.108 Q 216.13 108.014 213.755 101.139 Q 211.38 94.264 211.38 86.389 Q 211.38 78.514 213.755 71.639 Q 216.13 64.764 220.63 59.701 Q 225.13 54.639 231.63 51.701 Q 238.13 48.764 246.38 48.764 Q 252.692 48.764 257.973 51.201 Q 263.255 53.639 267.005 58.826 L 267.005 23.639 L 288.13 23.639 Z M 266.88 86.389 Q 266.88 83.889 266.505 80.889 Q 266.13 77.889 265.317 74.826 Q 264.505 71.764 263.192 68.889 Q 261.88 66.014 259.973 63.764 Q 258.067 61.514 255.536 60.17 Q 253.005 58.826 249.755 58.826 Q 246.192 58.826 243.567 60.108 Q 240.942 61.389 239.067 63.545 Q 237.192 65.701 235.973 68.514 Q 234.755 71.326 234.067 74.389 Q 233.38 77.451 233.098 80.545 Q 232.817 83.639 232.817 86.389 Q 232.817 89.139 233.098 92.233 Q 233.38 95.326 234.067 98.389 Q 234.755 101.451 235.973 104.295 Q 237.192 107.139 239.067 109.295 Q 240.942 111.451 243.567 112.733 Q 246.192 114.014 249.755 114.014 Q 253.317 114.014 256.005 112.764 Q 258.692 111.514 260.598 109.358 Q 262.505 107.201 263.723 104.42 Q 264.942 101.639 265.63 98.545 Q 266.317 95.451 266.598 92.326 Q 266.88 89.201 266.88 86.389 Z" style="white-space: pre; fill: rgb(235, 235, 247);"/>
  <path d="M 388.879 54.701 L 378.192 59.201 C 377.359 56.493 376.244 54.014 374.848 51.764 C 373.452 49.514 371.785 47.587 369.848 45.983 C 367.911 44.378 365.713 43.128 363.254 42.233 C 360.796 41.337 358.109 40.889 355.192 40.889 C 352.067 40.889 349.202 41.41 346.598 42.451 C 343.994 43.493 341.661 44.899 339.598 46.67 C 337.535 48.441 335.733 50.514 334.192 52.889 C 332.65 55.264 331.369 57.795 330.348 60.483 C 329.327 63.17 328.557 65.951 328.036 68.826 C 327.515 71.701 351.7 74.514 351.7 77.264 C 351.7 81.639 327.765 85.993 328.786 90.326 C 329.807 94.659 331.432 98.555 333.661 102.014 C 335.89 105.472 338.775 108.274 342.317 110.42 C 345.858 112.566 350.15 113.639 355.192 113.639 C 357.942 113.639 360.088 113.024 361.629 111.795 C 363.171 110.566 363.942 108.409 363.942 105.326 L 363.942 77.701 L 388.754 77.701 L 388.754 122.389 L 381.567 122.389 L 377.192 115.326 C 373.192 118.368 368.786 120.608 363.973 122.045 C 359.16 123.482 354.254 124.201 349.254 124.201 C 344.837 124.201 340.598 123.659 336.536 122.576 C 332.473 121.493 328.692 119.951 325.192 117.951 C 321.692 115.951 318.515 113.534 315.661 110.701 C 312.806 107.868 310.369 104.722 308.348 101.264 C 306.327 97.805 304.765 94.045 303.661 89.983 C 302.556 85.92 302.004 81.681 302.004 77.264 C 302.004 72.847 302.556 68.608 303.661 64.545 C 304.765 60.482 306.327 56.712 308.348 53.233 C 310.369 49.754 312.806 46.597 315.661 43.764 C 318.515 40.931 321.692 38.514 325.192 36.514 C 328.692 34.514 332.473 32.972 336.536 31.889 C 340.598 30.806 344.837 30.264 349.254 30.264 C 353.504 30.264 357.66 30.764 361.723 31.764 C 365.786 32.764 369.567 34.274 373.067 36.295 C 376.567 38.316 379.682 40.857 382.411 43.92 C 385.14 46.983 387.296 50.576 388.879 54.701 Z" style="white-space: pre; fill: rgb(235, 235, 247);"/>
  <path d="M 476.879 122.389 L 455.754 122.389 L 455.754 113.764 Q 452.004 118.889 446.723 121.358 Q 441.442 123.826 435.129 123.826 Q 426.879 123.826 420.379 120.889 Q 413.879 117.951 409.379 112.858 Q 404.879 107.764 402.504 100.889 Q 400.129 94.014 400.129 86.139 Q 400.129 78.264 402.504 71.389 Q 404.879 64.514 409.379 59.42 Q 413.879 54.326 420.379 51.389 Q 426.879 48.451 435.129 48.451 Q 439.317 48.451 443.098 49.701 Q 446.879 50.951 450.036 53.233 Q 453.192 55.514 455.598 58.733 Q 458.004 61.951 459.379 65.889 L 468.754 50.201 L 476.879 50.201 Z M 455.629 86.139 Q 455.629 83.326 455.348 80.201 Q 455.067 77.076 454.379 74.014 Q 453.692 70.951 452.473 68.17 Q 451.254 65.389 449.348 63.233 Q 447.442 61.076 444.754 59.826 Q 442.067 58.576 438.504 58.576 Q 434.942 58.576 432.317 59.858 Q 429.692 61.139 427.817 63.295 Q 425.942 65.451 424.723 68.264 Q 423.504 71.076 422.817 74.139 Q 422.129 77.201 421.848 80.295 Q 421.567 83.389 421.567 86.139 Q 421.567 88.889 421.848 92.014 Q 422.129 95.139 422.817 98.201 Q 423.504 101.264 424.723 104.076 Q 425.942 106.889 427.817 109.045 Q 429.692 111.201 432.317 112.483 Q 434.942 113.764 438.504 113.764 Q 441.754 113.764 444.286 112.42 Q 446.817 111.076 448.723 108.826 Q 450.629 106.576 451.942 103.701 Q 453.254 100.826 454.067 97.764 Q 454.879 94.701 455.254 91.67 Q 455.629 88.639 455.629 86.139 Z" style="white-space: pre; fill: rgb(235, 235, 247);"/>
  <path d="M 606.192 80.264 Q 606.192 87.701 604.442 95.764 Q 602.692 103.826 599.536 111.483 Q 596.379 119.139 591.942 125.951 Q 587.504 132.764 582.067 137.764 L 574.129 133.451 Q 575.942 130.201 577.442 126.139 Q 578.942 122.076 580.192 117.576 Q 581.442 113.076 582.379 108.326 Q 583.317 103.576 583.973 98.858 Q 584.629 94.139 584.942 89.701 Q 585.254 85.264 585.254 81.389 Q 585.254 79.201 585.129 76.639 Q 585.004 74.076 584.598 71.514 Q 584.192 68.951 583.379 66.608 Q 582.567 64.264 581.161 62.42 Q 579.754 60.576 577.661 59.483 Q 575.567 58.389 572.629 58.389 Q 569.754 58.389 567.723 59.92 Q 565.692 61.451 564.254 63.889 Q 562.817 66.326 561.973 69.389 Q 561.129 72.451 560.692 75.545 Q 560.254 78.639 560.098 81.451 Q 559.942 84.264 559.942 86.201 L 559.942 122.389 L 538.879 122.389 L 538.879 88.764 Q 538.879 86.576 538.942 83.483 Q 539.004 80.389 538.786 77.014 Q 538.567 73.639 537.973 70.295 Q 537.379 66.951 536.098 64.326 Q 534.817 61.701 532.629 60.045 Q 530.442 58.389 527.129 58.389 Q 524.317 58.389 522.411 59.951 Q 520.504 61.514 519.223 63.983 Q 517.942 66.451 517.223 69.545 Q 516.504 72.639 516.161 75.733 Q 515.817 78.826 515.754 81.608 Q 515.692 84.389 515.692 86.201 L 515.692 122.389 L 494.504 122.389 L 494.504 50.201 L 502.629 50.201 L 510.379 67.014 Q 513.004 58.264 518.661 53.358 Q 524.317 48.451 533.692 48.451 Q 542.129 48.451 547.692 51.951 Q 553.254 55.451 556.442 63.326 Q 558.254 59.889 560.473 57.139 Q 562.692 54.389 565.411 52.451 Q 568.129 50.514 571.442 49.483 Q 574.754 48.451 578.754 48.451 Q 586.129 48.451 591.348 50.858 Q 596.567 53.264 599.879 57.514 Q 603.192 61.764 604.692 67.608 Q 606.192 73.451 606.192 80.264 Z" style="white-space: pre; fill: rgb(235, 235, 247);"/>
  <path d="M 637.63 88.139 Q 641.505 89.014 645.38 89.514 Q 649.255 90.014 653.192 90.014 Q 657.317 90.014 660.848 89.233 Q 664.38 88.451 666.973 86.608 Q 669.567 84.764 671.067 81.701 Q 672.567 78.639 672.567 74.076 Q 672.567 70.389 671.567 67.326 Q 670.567 64.264 668.598 62.076 Q 666.63 59.889 663.755 58.67 Q 660.88 57.451 657.067 57.451 Q 653.505 57.451 650.661 58.764 Q 647.817 60.076 645.661 62.295 Q 643.505 64.514 641.973 67.451 Q 640.442 70.389 639.442 73.576 Q 638.442 76.764 638.005 80.014 Q 637.567 83.264 637.567 86.139 Q 637.567 86.639 637.567 87.139 Q 637.567 87.639 637.63 88.139 Z M 689.692 73.889 Q 689.692 78.326 688.255 81.795 Q 686.817 85.264 684.348 87.889 Q 681.88 90.514 678.63 92.326 Q 675.38 94.139 671.692 95.295 Q 668.005 96.451 664.098 96.951 Q 660.192 97.451 656.505 97.451 Q 651.817 97.451 647.255 96.795 Q 642.692 96.139 638.255 94.701 Q 638.942 98.826 640.442 102.545 Q 641.942 106.264 644.442 109.045 Q 646.942 111.826 650.598 113.451 Q 654.255 115.076 659.255 115.076 Q 662.567 115.076 665.567 114.076 Q 668.567 113.076 671.067 111.264 Q 673.567 109.451 675.473 106.951 Q 677.38 104.451 678.567 101.389 L 687.692 104.764 Q 685.63 109.701 682.036 113.295 Q 678.442 116.889 673.911 119.233 Q 669.38 121.576 664.286 122.701 Q 659.192 123.826 654.192 123.826 Q 645.942 123.826 638.942 121.045 Q 631.942 118.264 626.88 113.264 Q 621.817 108.264 618.942 101.326 Q 616.067 94.389 616.067 86.139 Q 616.067 77.889 618.942 70.951 Q 621.817 64.014 626.88 59.014 Q 631.942 54.014 638.942 51.233 Q 645.942 48.451 654.192 48.451 Q 658.192 48.451 662.38 49.014 Q 666.567 49.576 670.505 50.795 Q 674.442 52.014 677.942 53.951 Q 681.442 55.889 684.036 58.733 Q 686.63 61.576 688.161 65.326 Q 689.692 69.076 689.692 73.889 Z" style="white-space: pre; fill: rgb(235, 235, 247);"/>
</svg>