<?xml version="1.0" encoding="utf-8"?>
<svg viewBox="0 0 700 200" xmlns="http://www.w3.org/2000/svg">
  <path d="M 131.853 15.687 Q 131.853 16.043 131.763 16.328 Q 131.672 16.613 131.523 16.828 Q 131.374 17.044 131.177 17.195 Q 130.98 17.347 130.765 17.443 Q 130.549 17.539 130.328 17.584 Q 130.108 17.629 129.911 17.629 L 127.415 17.629 L 127.415 16.245 L 129.911 16.245 Q 130.193 16.245 130.331 16.102 Q 130.47 15.958 130.47 15.687 L 130.47 11.317 Q 130.47 11.046 130.331 10.904 Q 130.193 10.763 129.911 10.763 L 127.415 10.763 Q 127.159 10.763 127.01 10.92 Q 126.861 11.077 126.861 11.317 L 126.861 13.19 Q 126.861 13.462 127.005 13.606 Q 127.148 13.749 127.425 13.749 L 129.911 13.749 L 129.911 15.133 L 127.415 15.133 Q 127.218 15.133 126.999 15.088 Q 126.781 15.043 126.566 14.947 Q 126.35 14.851 126.153 14.699 Q 125.956 14.548 125.807 14.332 Q 125.658 14.116 125.568 13.832 Q 125.477 13.547 125.477 13.19 L 125.477 11.317 Q 125.477 11.12 125.522 10.902 Q 125.568 10.684 125.664 10.468 Q 125.759 10.252 125.911 10.056 Q 126.063 9.859 126.278 9.71 Q 126.494 9.561 126.776 9.47 Q 127.058 9.38 127.415 9.38 L 129.911 9.38 Q 130.108 9.38 130.328 9.425 Q 130.549 9.47 130.765 9.566 Q 130.98 9.662 131.177 9.813 Q 131.374 9.965 131.523 10.181 Q 131.672 10.396 131.763 10.678 Q 131.853 10.96 131.853 11.317 Z" transform="matrix(12.862353, 0, 0, 12.822712, -1605.481079, -44.53796)" style="fill: rgb(235, 235, 245); white-space: pre;"/>
  <path d="M 139.058 13.228 Q 139.058 13.515 138.957 13.848 Q 138.856 14.18 138.629 14.465 Q 138.403 14.75 138.039 14.941 Q 137.674 15.133 137.152 15.133 L 134.656 15.133 Q 134.369 15.133 134.036 15.032 Q 133.704 14.931 133.419 14.705 Q 133.134 14.478 132.942 14.114 Q 132.751 13.749 132.751 13.228 Q 132.751 12.94 132.852 12.605 Q 132.953 12.27 133.179 11.985 Q 133.406 11.7 133.77 11.509 Q 134.135 11.317 134.656 11.317 L 137.152 11.317 L 137.152 12.637 L 134.656 12.637 Q 134.374 12.637 134.22 12.81 Q 134.065 12.983 134.065 13.238 Q 134.065 13.51 134.244 13.661 Q 134.422 13.813 134.667 13.813 L 137.152 13.813 Q 137.434 13.813 137.589 13.643 Q 137.743 13.472 137.743 13.217 L 137.743 11.285 Q 137.743 11.014 137.576 10.854 Q 137.408 10.694 137.152 10.694 L 134.113 10.694 L 134.113 9.38 L 137.152 9.38 Q 137.44 9.38 137.772 9.481 Q 138.105 9.582 138.39 9.808 Q 138.675 10.034 138.866 10.399 Q 139.058 10.763 139.058 11.285 Z" transform="matrix(12.862353, 0, 0, 12.822712, -1605.481079, -44.53796)" style="fill: rgb(235, 235, 245); white-space: pre;"/>
  <path d="M 145.375 15.133 L 143.991 15.133 L 143.991 11.317 Q 143.991 11.046 143.848 10.904 Q 143.704 10.763 143.422 10.763 L 141.623 10.763 L 141.623 15.133 L 140.239 15.133 L 140.239 10.066 Q 140.239 9.923 140.292 9.797 Q 140.346 9.672 140.441 9.579 Q 140.537 9.486 140.665 9.433 Q 140.793 9.38 140.936 9.38 L 143.433 9.38 Q 143.72 9.38 144.05 9.481 Q 144.38 9.582 144.678 9.805 L 144.678 9.38 L 146.551 9.38 Q 146.748 9.38 146.967 9.425 Q 147.185 9.47 147.4 9.566 Q 147.616 9.662 147.813 9.813 Q 148.01 9.965 148.159 10.181 Q 148.308 10.396 148.398 10.678 Q 148.489 10.96 148.489 11.317 L 148.489 15.133 L 147.105 15.133 L 147.105 11.317 Q 147.105 11.046 146.969 10.904 Q 146.834 10.763 146.551 10.763 L 145.306 10.763 Q 145.375 11.019 145.375 11.317 Z" transform="matrix(12.862353, 0, 0, 12.822712, -1605.481079, -44.53796)" style="fill: rgb(235, 235, 245); white-space: pre;"/>
  <path d="M 155.949 11.285 Q 155.949 11.572 155.848 11.905 Q 155.747 12.238 155.521 12.522 Q 155.295 12.807 154.93 12.999 Q 154.566 13.19 154.044 13.19 L 151.548 13.19 L 151.548 11.876 L 154.044 11.876 Q 154.326 11.876 154.48 11.703 Q 154.635 11.53 154.635 11.274 Q 154.635 11.003 154.462 10.849 Q 154.289 10.694 154.044 10.694 L 151.548 10.694 Q 151.266 10.694 151.111 10.867 Q 150.957 11.04 150.957 11.296 L 150.957 13.228 Q 150.957 13.504 151.13 13.659 Q 151.303 13.813 151.559 13.813 L 154.044 13.813 L 154.044 15.133 L 151.548 15.133 Q 151.26 15.133 150.928 15.032 Q 150.595 14.931 150.31 14.705 Q 150.026 14.478 149.834 14.114 Q 149.643 13.749 149.643 13.228 L 149.643 11.285 Q 149.643 10.998 149.744 10.665 Q 149.845 10.332 150.071 10.048 Q 150.297 9.763 150.662 9.571 Q 151.026 9.38 151.548 9.38 L 154.044 9.38 Q 154.331 9.38 154.664 9.481 Q 154.997 9.582 155.281 9.808 Q 155.566 10.034 155.758 10.399 Q 155.949 10.763 155.949 11.285 Z" transform="matrix(12.862353, 0, 0, 12.822712, -1605.481079, -44.53796)" style="fill: rgb(235, 235, 245); white-space: pre;"/>
  <path d="M 163.277 15.133 L 161.893 15.133 L 161.893 11.317 Q 161.893 11.046 161.755 10.904 Q 161.616 10.763 161.34 10.763 L 158.843 10.763 L 158.843 9.38 L 161.34 9.38 Q 161.536 9.38 161.755 9.425 Q 161.973 9.47 162.188 9.566 Q 162.404 9.662 162.601 9.813 Q 162.798 9.965 162.947 10.181 Q 163.096 10.396 163.186 10.678 Q 163.277 10.96 163.277 11.317 Z M 158.285 15.133 L 156.901 15.133 L 156.901 6.947 L 158.285 6.947 Z" transform="matrix(12.862353, 0, 0, 12.822712, -1605.481079, -44.53796)" style="fill: rgb(235, 235, 245); white-space: pre;"/>
  <path d="M 170.834 14.436 Q 170.834 14.585 170.781 14.713 Q 170.728 14.84 170.635 14.933 Q 170.541 15.027 170.416 15.08 Q 170.291 15.133 170.148 15.133 L 167.018 15.133 Q 166.763 15.133 166.473 15.074 Q 166.182 15.016 165.9 14.886 Q 165.618 14.755 165.355 14.556 Q 165.091 14.356 164.894 14.071 Q 164.698 13.786 164.578 13.414 Q 164.458 13.041 164.458 12.573 L 164.458 9.38 L 165.842 9.38 L 165.842 12.573 Q 165.842 12.844 165.935 13.06 Q 166.028 13.276 166.188 13.43 Q 166.347 13.584 166.563 13.667 Q 166.779 13.749 167.029 13.749 L 169.45 13.749 L 169.45 9.38 L 170.834 9.38 Z" transform="matrix(12.862353, 0, 0, 12.822712, -1605.481079, -44.53796)" style="fill: rgb(235, 235, 245); white-space: pre;"/>
  <path d="M 178.444 13.19 Q 178.444 13.547 178.353 13.832 Q 178.263 14.116 178.114 14.332 Q 177.965 14.548 177.768 14.699 Q 177.571 14.851 177.355 14.947 Q 177.14 15.043 176.919 15.088 Q 176.698 15.133 176.501 15.133 L 174.005 15.133 Q 173.648 15.133 173.366 15.043 Q 173.084 14.952 172.869 14.8 Q 172.653 14.649 172.501 14.452 Q 172.35 14.255 172.254 14.039 Q 172.158 13.824 172.113 13.603 Q 172.068 13.382 172.068 13.19 L 172.068 11.317 Q 172.068 10.785 172.262 10.415 Q 172.456 10.045 172.746 9.813 Q 173.036 9.582 173.377 9.481 Q 173.718 9.38 174.005 9.38 L 176.501 9.38 L 176.501 10.763 L 174.016 10.763 Q 173.739 10.763 173.595 10.904 Q 173.451 11.046 173.451 11.317 L 173.451 13.18 Q 173.451 13.462 173.592 13.606 Q 173.734 13.749 174.005 13.749 L 176.501 13.749 Q 176.783 13.749 176.922 13.606 Q 177.06 13.462 177.06 13.19 L 177.06 6.947 L 178.444 6.947 Z" transform="matrix(12.862353, 0, 0, 12.822712, -1605.481079, -44.53796)" style="fill: rgb(235, 235, 245); white-space: pre;"/>
</svg>