<?xml version="1.0" encoding="utf-8"?>
<svg viewBox="0 0 700 200" xmlns="http://www.w3.org/2000/svg">
  <path d="M 90.317 145.971 Q 90.317 150.42 89.188 153.973 Q 88.06 157.526 86.2 160.215 Q 84.341 162.905 81.884 164.797 Q 79.427 166.69 76.737 167.885 Q 74.048 169.081 71.292 169.645 Q 68.536 170.21 66.079 170.21 L 34.935 170.21 L 34.935 152.944 L 66.079 152.944 Q 69.599 152.944 71.325 151.151 Q 73.052 149.358 73.052 145.971 L 73.052 91.452 Q 73.052 88.065 71.325 86.305 Q 69.599 84.545 66.079 84.545 L 34.935 84.545 Q 31.747 84.545 29.888 86.504 Q 28.028 88.463 28.028 91.452 L 28.028 114.827 Q 28.028 118.213 29.821 120.006 Q 31.614 121.799 35.067 121.799 L 66.079 121.799 L 66.079 139.065 L 34.935 139.065 Q 32.477 139.065 29.755 138.501 Q 27.032 137.936 24.343 136.741 Q 21.653 135.545 19.196 133.653 Q 16.739 131.76 14.88 129.071 Q 13.02 126.381 11.892 122.829 Q 10.763 119.276 10.763 114.827 L 10.763 91.452 Q 10.763 88.995 11.327 86.272 Q 11.892 83.549 13.087 80.86 Q 14.282 78.17 16.175 75.713 Q 18.067 73.256 20.757 71.397 Q 23.446 69.538 26.966 68.409 Q 30.485 67.28 34.935 67.28 L 66.079 67.28 Q 68.536 67.28 71.292 67.844 Q 74.048 68.409 76.737 69.604 Q 79.427 70.799 81.884 72.692 Q 84.341 74.585 86.2 77.274 Q 88.06 79.963 89.188 83.483 Q 90.317 87.003 90.317 91.452 Z" style="fill: rgb(235, 235, 245); white-space: pre;"/>
  <path d="M 168.935 84.545 L 130.087 84.545 Q 126.567 84.545 124.774 86.305 Q 122.981 88.065 122.981 91.452 L 122.981 139.065 L 105.716 139.065 L 105.716 91.452 Q 105.716 87.003 106.845 83.483 Q 107.974 79.963 109.866 77.274 Q 111.759 74.585 114.216 72.692 Q 116.673 70.799 119.362 69.604 Q 122.052 68.409 124.808 67.844 Q 127.563 67.28 129.954 67.28 L 168.935 67.28 Z" style="fill: rgb(235, 235, 245); white-space: pre;"/>
  <path d="M 197.817 52.538 L 180.552 52.538 L 180.552 36.932 L 197.817 36.932 Z M 197.817 139.065 L 180.552 139.065 L 180.552 67.28 L 197.817 67.28 Z" style="fill: rgb(235, 235, 245); white-space: pre;"/>
  <path d="M 293.122 114.827 Q 293.122 119.276 291.993 122.829 Q 290.864 126.381 289.005 129.071 Q 287.145 131.76 284.688 133.653 Q 282.231 135.545 279.542 136.741 Q 276.852 137.936 274.097 138.501 Q 271.341 139.065 268.884 139.065 L 237.739 139.065 Q 233.29 139.065 229.77 137.936 Q 226.251 136.807 223.561 134.915 Q 220.872 133.022 218.979 130.565 Q 217.087 128.108 215.892 125.419 Q 214.696 122.729 214.132 119.973 Q 213.567 117.217 213.567 114.827 L 213.567 91.452 Q 213.567 84.811 215.991 80.196 Q 218.415 75.581 222.034 72.692 Q 225.653 69.803 229.903 68.542 Q 234.153 67.28 237.739 67.28 L 268.884 67.28 L 268.884 84.545 L 237.872 84.545 Q 234.419 84.545 232.626 86.305 Q 230.833 88.065 230.833 91.452 L 230.833 114.694 Q 230.833 118.213 232.593 120.006 Q 234.352 121.799 237.739 121.799 L 268.884 121.799 Q 272.403 121.799 274.13 120.006 Q 275.856 118.213 275.856 114.827 L 275.856 36.932 L 293.122 36.932 Z" style="fill: rgb(235, 235, 245); white-space: pre;"/>
  <path d="M 387.677 145.971 Q 387.677 150.42 386.548 153.973 Q 385.419 157.526 383.56 160.215 Q 381.7 162.905 379.243 164.797 Q 376.786 166.69 374.097 167.885 Q 371.407 169.081 368.651 169.645 Q 365.895 170.21 363.438 170.21 L 332.294 170.21 L 332.294 152.944 L 363.438 152.944 Q 366.958 152.944 368.685 151.151 Q 370.411 149.358 370.411 145.971 L 370.411 91.452 Q 370.411 88.065 368.685 86.305 Q 366.958 84.545 363.438 84.545 L 332.294 84.545 Q 329.106 84.545 327.247 86.504 Q 325.388 88.463 325.388 91.452 L 325.388 114.827 Q 325.388 118.213 327.181 120.006 Q 328.974 121.799 332.427 121.799 L 363.438 121.799 L 363.438 139.065 L 332.294 139.065 Q 329.837 139.065 327.114 138.501 Q 324.392 137.936 321.702 136.741 Q 319.013 135.545 316.556 133.653 Q 314.099 131.76 312.239 129.071 Q 310.38 126.381 309.251 122.829 Q 308.122 119.276 308.122 114.827 L 308.122 91.452 Q 308.122 88.995 308.686 86.272 Q 309.251 83.549 310.446 80.86 Q 311.642 78.17 313.534 75.713 Q 315.427 73.256 318.116 71.397 Q 320.806 69.538 324.325 68.409 Q 327.845 67.28 332.294 67.28 L 363.438 67.28 Q 365.895 67.28 368.651 67.844 Q 371.407 68.409 374.097 69.604 Q 376.786 70.799 379.243 72.692 Q 381.7 74.585 383.56 77.274 Q 385.419 79.963 386.548 83.483 Q 387.677 87.003 387.677 91.452 Z" style="fill: rgb(235, 235, 245); white-space: pre;"/>
  <path d="M 477.599 115.292 Q 477.599 118.878 476.337 123.028 Q 475.075 127.178 472.253 130.731 Q 469.431 134.284 464.882 136.674 Q 460.333 139.065 453.825 139.065 L 422.681 139.065 Q 419.095 139.065 414.944 137.803 Q 410.794 136.542 407.241 133.719 Q 403.688 130.897 401.298 126.348 Q 398.907 121.799 398.907 115.292 Q 398.907 111.706 400.169 107.522 Q 401.431 103.338 404.253 99.786 Q 407.075 96.233 411.624 93.842 Q 416.173 91.452 422.681 91.452 L 453.825 91.452 L 453.825 107.92 L 422.681 107.92 Q 419.161 107.92 417.235 110.079 Q 415.31 112.237 415.31 115.424 Q 415.31 118.811 417.534 120.704 Q 419.759 122.596 422.813 122.596 L 453.825 122.596 Q 457.345 122.596 459.27 120.471 Q 461.196 118.346 461.196 115.159 L 461.196 91.053 Q 461.196 87.667 459.104 85.674 Q 457.013 83.682 453.825 83.682 L 415.907 83.682 L 415.907 67.28 L 453.825 67.28 Q 457.411 67.28 461.561 68.542 Q 465.712 69.803 469.265 72.626 Q 472.817 75.448 475.208 79.997 Q 477.599 84.545 477.599 91.053 Z" style="fill: rgb(235, 235, 245); white-space: pre;"/>
  <path d="M 556.415 139.065 L 539.149 139.065 L 539.149 91.452 Q 539.149 88.065 537.356 86.305 Q 535.563 84.545 532.044 84.545 L 509.599 84.545 L 509.599 139.065 L 492.333 139.065 L 492.333 75.846 Q 492.333 74.053 492.997 72.493 Q 493.661 70.932 494.856 69.77 Q 496.052 68.608 497.645 67.944 Q 499.239 67.28 501.032 67.28 L 532.177 67.28 Q 535.763 67.28 539.88 68.542 Q 543.997 69.803 547.716 72.592 L 547.716 67.28 L 571.091 67.28 Q 573.548 67.28 576.27 67.844 Q 578.993 68.409 581.683 69.604 Q 584.372 70.799 586.829 72.692 Q 589.286 74.585 591.145 77.274 Q 593.005 79.963 594.134 83.483 Q 595.263 87.003 595.263 91.452 L 595.263 139.065 L 577.997 139.065 L 577.997 91.452 Q 577.997 88.065 576.304 86.305 Q 574.61 84.545 571.091 84.545 L 555.552 84.545 Q 556.415 87.733 556.415 91.452 Z" style="fill: rgb(235, 235, 245); white-space: pre;"/>
  <path d="M 688.36 91.053 Q 688.36 94.639 687.099 98.79 Q 685.837 102.94 683.015 106.493 Q 680.192 110.045 675.643 112.436 Q 671.095 114.827 664.587 114.827 L 633.442 114.827 L 633.442 98.424 L 664.587 98.424 Q 668.106 98.424 670.032 96.266 Q 671.958 94.108 671.958 90.92 Q 671.958 87.534 669.8 85.608 Q 667.642 83.682 664.587 83.682 L 633.442 83.682 Q 629.923 83.682 627.997 85.84 Q 626.071 87.999 626.071 91.186 L 626.071 115.292 Q 626.071 118.745 628.229 120.67 Q 630.388 122.596 633.575 122.596 L 664.587 122.596 L 664.587 139.065 L 633.442 139.065 Q 629.856 139.065 625.706 137.803 Q 621.556 136.542 618.003 133.719 Q 614.45 130.897 612.06 126.348 Q 609.669 121.799 609.669 115.292 L 609.669 91.053 Q 609.669 87.467 610.931 83.317 Q 612.192 79.167 615.015 75.614 Q 617.837 72.061 622.386 69.67 Q 626.935 67.28 633.442 67.28 L 664.587 67.28 Q 668.173 67.28 672.323 68.542 Q 676.474 69.803 680.026 72.626 Q 683.579 75.448 685.97 79.997 Q 688.36 84.545 688.36 91.053 Z" style="fill: rgb(235, 235, 245); white-space: pre;"/>
</svg>