<?xml version="1.0" encoding="utf-8"?>
<svg viewBox="0 0 700 200" xmlns="http://www.w3.org/2000/svg">
  <path d="M 68.548 34.663 Q 104.698 34.663 104.698 64.213 Q 104.698 69.163 103.648 74.863 L 98.398 104.863 Q 94.798 125.713 82.798 135.763 Q 70.798 145.813 49.048 145.813 Q 27.298 145.813 18.748 135.763 Q 12.898 128.863 12.898 116.713 Q 12.898 111.313 14.098 104.863 L 19.348 74.863 Q 26.398 34.663 68.548 34.663 Z M 53.098 122.563 Q 60.598 122.563 65.098 118.663 Q 69.598 114.763 71.398 104.263 L 76.498 75.463 Q 76.948 72.463 76.948 70.063 Q 76.948 57.913 64.648 57.913 Q 49.198 58.213 46.198 75.463 L 41.098 104.263 Q 40.498 108.013 40.498 112.063 Q 40.498 122.563 53.098 122.563 Z" style="fill: rgb(244, 244, 244); white-space: pre;"/>
  <path d="M 186.292 71.563 Q 188.392 77.863 188.392 88.288 Q 188.392 98.713 185.842 108.313 Q 183.292 117.913 178.117 126.538 Q 172.942 135.163 163.717 140.488 Q 154.492 145.813 142.492 145.813 Q 123.742 145.813 116.542 138.163 Q 111.742 133.063 111.742 122.563 Q 111.742 117.613 112.942 111.313 L 119.992 71.563 L 145.492 71.563 L 138.442 111.463 Q 137.992 113.713 137.992 115.513 Q 137.992 124.063 146.842 124.063 Q 162.442 124.063 162.442 91.363 Q 162.442 83.713 161.242 74.413 L 160.792 71.563 Z" style="fill: rgb(244, 244, 244); white-space: pre;"/>
  <path d="M 227.089 145.813 Q 195.889 145.813 195.889 124.213 Q 195.889 121.213 196.489 117.763 L 199.639 99.163 Q 202.189 84.763 212.914 77.038 Q 223.639 69.313 241.339 69.313 Q 271.489 69.313 271.489 92.113 Q 271.489 95.413 270.889 99.313 L 269.089 109.963 L 223.339 109.963 L 222.739 113.413 Q 222.439 115.213 222.439 116.713 Q 222.439 124.963 232.189 124.963 Q 235.789 124.963 238.339 122.713 Q 240.889 120.463 241.339 117.463 L 266.239 117.763 Q 261.289 145.813 227.089 145.813 Z M 245.089 100.813 Q 245.689 98.263 245.689 96.088 Q 245.689 93.913 243.739 91.663 Q 241.789 89.413 237.514 89.413 Q 233.239 89.413 229.714 92.263 Q 226.189 95.113 224.839 100.813 Z" style="fill: rgb(244, 244, 244); white-space: pre;"/>
  <path d="M 352.335 86.863 Q 352.335 91.963 350.61 96.763 Q 348.885 101.563 347.235 103.813 L 345.585 105.913 L 322.935 105.913 Q 326.685 102.463 326.685 97.363 Q 326.685 94.663 324.96 92.938 Q 323.235 91.213 320.235 91.213 Q 315.135 91.213 311.385 96.313 L 302.985 143.713 L 277.485 143.713 L 290.235 71.563 L 313.935 71.563 L 312.135 81.613 Q 320.685 69.463 332.835 69.463 Q 342.585 69.463 347.46 74.113 Q 352.335 78.763 352.335 86.863 Z" style="fill: rgb(244, 244, 244); white-space: pre;"/>
  <path d="M 419.845 143.713 L 352.495 143.713 L 356.245 122.713 L 398.545 92.563 L 361.495 92.563 L 365.245 71.563 L 432.595 71.563 L 428.845 92.563 L 387.895 122.713 L 423.595 122.713 Z" style="fill: rgb(244, 244, 244); white-space: pre;"/>
  <path d="M 482.685 69.463 Q 498.885 69.463 507.135 76.513 Q 513.585 82.063 513.585 91.963 Q 513.585 95.263 512.835 99.163 L 509.685 116.713 Q 506.835 132.613 496.41 139.213 Q 485.985 145.813 468.585 145.813 Q 451.185 145.813 443.085 139.213 Q 437.085 134.263 437.085 124.363 Q 437.085 120.913 437.835 116.713 L 440.985 99.163 Q 446.235 69.463 482.685 69.463 Z M 486.735 102.163 Q 487.035 100.663 487.035 98.338 Q 487.035 96.013 485.085 93.163 Q 483.135 90.313 478.26 90.313 Q 473.385 90.313 470.085 93.538 Q 466.785 96.763 465.885 102.163 L 463.935 113.413 Q 463.635 114.913 463.635 117.238 Q 463.635 119.563 465.585 122.263 Q 467.535 124.963 472.41 124.963 Q 477.285 124.963 480.585 121.588 Q 483.885 118.213 484.785 113.413 Z" style="fill: rgb(244, 244, 244); white-space: pre;"/>
  <path d="M 570.745 97.663 Q 570.745 91.213 564.52 91.213 Q 558.295 91.213 554.245 95.863 L 545.845 143.713 L 520.345 143.713 L 533.095 71.563 L 556.795 71.563 L 555.145 80.413 Q 563.995 69.463 577.495 69.463 Q 590.995 69.463 595.045 76.063 Q 597.595 80.263 597.595 85.663 Q 597.595 91.063 596.845 95.713 L 592.795 118.813 Q 592.645 119.713 592.645 120.463 Q 592.645 124.513 597.145 124.513 Q 600.595 124.513 603.295 123.013 L 602.545 139.963 Q 595.495 145.813 586.495 145.813 Q 566.095 145.813 566.095 128.713 Q 566.095 125.713 566.695 122.263 L 570.295 102.313 Q 570.745 99.613 570.745 97.663 Z" style="fill: rgb(244, 244, 244); white-space: pre;"/>
  <path d="M 642.448 145.813 Q 611.248 145.813 611.248 124.213 Q 611.248 121.213 611.848 117.763 L 614.998 99.163 Q 617.548 84.763 628.273 77.038 Q 638.998 69.313 656.698 69.313 Q 686.848 69.313 686.848 92.113 Q 686.848 95.413 686.248 99.313 L 684.448 109.963 L 638.698 109.963 L 638.098 113.413 Q 637.798 115.213 637.798 116.713 Q 637.798 124.963 647.548 124.963 Q 651.148 124.963 653.698 122.713 Q 656.248 120.463 656.698 117.463 L 681.598 117.763 Q 676.648 145.813 642.448 145.813 Z M 660.448 100.813 Q 661.048 98.263 661.048 96.088 Q 661.048 93.913 659.098 91.663 Q 657.148 89.413 652.873 89.413 Q 648.598 89.413 645.073 92.263 Q 641.548 95.113 640.198 100.813 Z" style="fill: rgb(244, 244, 244); white-space: pre;"/>
</svg>